<!DOCTYPE svg PUBLIC "-//W3C//DTD SVG 1.1//EN" "http://www.w3.org/Graphics/SVG/1.1/DTD/svg11.dtd">

<!-- Uploaded to: SVG Repo, www.svgrepo.com, Transformed by: SVG Repo Mixer Tools -->
<svg fill="#6BD0FF" width="800px" height="800px" viewBox="0 0 32 32" id="icon" xmlns="http://www.w3.org/2000/svg">

<g id="SVGRepo_bgCarrier" stroke-width="0"/>

<g id="SVGRepo_iconCarrier">

<defs>

<style>.cls-1{fill:none;}</style>

</defs>

<title>popup</title>

<path d="M28,4H10A2.0059,2.0059,0,0,0,8,6V20a2.0059,2.0059,0,0,0,2,2H28a2.0059,2.0059,0,0,0,2-2V6A2.0059,2.0059,0,0,0,28,4Zm0,16H10V6H28Z"/>

<path d="M18,26H4V16H6V14H4a2.0059,2.0059,0,0,0-2,2V26a2.0059,2.0059,0,0,0,2,2H18a2.0059,2.0059,0,0,0,2-2V24H18Z"/>

<rect id="_Transparent_Rectangle_" data-name="&lt;Transparent Rectangle&gt;" class="cls-1" width="32" height="32"/>

</g>

</svg>