<?xml version="1.0" encoding="iso-8859-1"?>
<!-- Uploaded to: SVG Repo, www.svgrepo.com, Transformed by: SVG Repo Mixer Tools -->
<svg height="800px" width="800px" version="1.1" id="Layer_1" xmlns="http://www.w3.org/2000/svg" xmlns:xlink="http://www.w3.org/1999/xlink" 
	 viewBox="0 0 512 512" xml:space="preserve">
<circle style="fill:#0F7986;" cx="256" cy="256" r="256"/>
<path style="fill:#ED4C54;" d="M146.853,230.41h218.296c44.561,0,80.684,36.123,80.684,80.684v20.822
	c0,44.561-36.123,80.684-80.684,80.684H146.853c-44.561,0-80.684-36.123-80.684-80.684v-20.822
	C66.168,266.533,102.292,230.41,146.853,230.41z"/>
<path style="fill:#FF5B62;" d="M144.231,230.409H367.77c43.113,0,78.064,34.95,78.064,78.064v20.146
	c0,43.113-34.95,78.064-78.064,78.064H144.231c-43.113,0-78.064-34.95-78.064-78.064v-20.146
	C66.168,265.359,101.119,230.409,144.231,230.409z"/>
<path style="fill:#ED4C54;" d="M117.202,288.951h7.155c3.743,0,6.804,3.061,6.804,6.804v11.204h11.204
	c3.743,0,6.805,3.061,6.805,6.804v7.155c0,3.743-3.062,6.805-6.805,6.805h-11.204v11.205c0,3.743-3.061,6.804-6.804,6.804h-7.155
	c-3.743,0-6.804-3.061-6.804-6.804v-11.205H99.193c-3.743,0-6.805-3.062-6.805-6.805v-7.155c0-3.743,3.062-6.804,6.805-6.804h11.205
	v-11.204C110.398,292.012,113.459,288.951,117.202,288.951z"/>
<rect x="160.646" y="253.285" style="fill:#FAD24D;" width="183.052" height="115.025"/>
<g>
	<path style="fill:#FFFFFF;" d="M313.971,379.21h24.152c1.864,0,3.39,1.525,3.39,3.39v6.991c0,1.866-1.525,3.391-3.39,3.391h-24.152
		c-1.866,0-3.39-1.525-3.39-3.391v-6.991C310.58,380.735,312.104,379.21,313.971,379.21z"/>
	<path style="fill:#FFFFFF;" d="M272.02,379.21h24.154c1.864,0,3.39,1.525,3.39,3.39v6.991c0,1.866-1.525,3.391-3.39,3.391H272.02
		c-1.864,0-3.389-1.525-3.389-3.391v-6.991C268.63,380.735,270.154,379.21,272.02,379.21z"/>
</g>
<g>
	<path style="fill:#FAD24D;" d="M405.686,308.482h11.23c2.447,0,4.448,2.001,4.448,4.448v11.229c0,2.448-2.001,4.45-4.448,4.45
		h-11.23c-2.447,0-4.448-2.001-4.448-4.45V312.93C401.237,310.483,403.238,308.482,405.686,308.482z"/>
	<path style="fill:#FAD24D;" d="M378.726,301.648v-11.229c0-2.447,2.001-4.448,4.448-4.448h11.229c2.448,0,4.45,2.001,4.45,4.448
		v11.229c0,2.447-2.001,4.448-4.45,4.448h-11.229C380.728,306.097,378.726,304.095,378.726,301.648z"/>
	<path style="fill:#FAD24D;" d="M378.726,346.671v-11.229c0-2.448,2.001-4.449,4.448-4.449h11.229c2.448,0,4.45,2.001,4.45,4.449
		v11.229c0,2.447-2.001,4.448-4.45,4.448h-11.229C380.728,351.119,378.726,349.118,378.726,346.671z"/>
	<path style="fill:#FAD24D;" d="M360.665,308.482h11.229c2.447,0,4.448,2.001,4.448,4.448v11.229c0,2.448-2.001,4.45-4.448,4.45
		h-11.229c-2.448,0-4.45-2.001-4.45-4.45V312.93C356.214,310.483,358.216,308.482,360.665,308.482z"/>
</g>
<g>
	<path style="fill:#FFFFFF;" d="M406.904,314.149l8.793,4.395l-8.793,4.396V314.149z"/>
	<path style="fill:#FFFFFF;" d="M370.674,314.149l-8.793,4.395l8.793,4.396V314.149z"/>
	<path style="fill:#FFFFFF;" d="M384.394,336.659l4.395,8.793l4.396-8.793H384.394z"/>
	<path style="fill:#FFFFFF;" d="M384.394,300.429l4.395-8.791l4.396,8.791H384.394z"/>
</g>
<path style="fill:#21D0C3;" d="M119.553,211.989l-0.094-42.089l34.939-3.575c2.31-8.651,5.747-17.063,10.292-25.008l-22.291-27.134
	l33.768-33.918l27.227,22.175c7.926-4.584,16.323-8.058,24.964-10.404l3.425-34.955l47.86-0.1l3.574,34.934
	c8.652,2.308,17.061,5.74,25.009,10.297l27.13-22.296l33.917,33.768l-22.174,27.227c4.591,7.926,8.058,16.323,10.404,24.968
	l34.952,3.417l0.097,42.708h-76.284c8.127-23.413,2.908-49.395-15.3-67.519c-53.828-53.585-127.434,6.216-106.54,67.519h-37.433
	L119.553,211.989L119.553,211.989z"/>
<path style="fill:#DCE3DB;" d="M242.552,197.948c-11.504-5.125-19.572-16.622-19.663-30.033
	c-0.086-12.569,6.834-23.546,17.105-29.233l0.188,26.373l31.599-0.222l-0.195-26.37c10.359,5.531,17.432,16.413,17.528,28.982
	c0.087,13.416-7.805,25.027-19.242,30.308c0.111,0.716,0.188,1.465,0.191,2.183l0.084,30.471h-27.671l-0.084-30.274
	C242.392,199.393,242.439,198.66,242.552,197.948L242.552,197.948z"/>
<path style="fill:#FAD24D;" d="M115.972,287.629h7.155c3.743,0,6.805,3.061,6.805,6.804v11.204h11.204
	c3.743,0,6.804,3.061,6.804,6.804v7.155c0,3.743-3.061,6.804-6.804,6.804h-11.204v11.205c0,3.743-3.062,6.805-6.805,6.805h-7.155
	c-3.743,0-6.804-3.062-6.804-6.805V326.4H97.964c-3.743,0-6.804-3.061-6.804-6.804v-7.155c0-3.743,3.061-6.804,6.804-6.804h11.205
	v-11.204C109.169,290.69,112.23,287.629,115.972,287.629z"/>
<rect x="109.167" y="305.633" style="fill:#EDB937;" width="20.763" height="20.762"/>
</svg>